<mxfile host="app.diagrams.net" modified="2024-01-15T13:39:57.220Z" agent="Mozilla/5.0 (Macintosh; Intel Mac OS X 10_15_7) AppleWebKit/537.36 (KHTML, like Gecko) Chrome/120.0.0.0 Safari/537.36" etag="NK2MCDSMe8YLfEO1JVfo" version="22.1.18" type="github">
  <diagram id="C5RBs43oDa-KdzZeNtuy" name="Page-1">
    <mxGraphModel dx="3832" dy="1093" grid="1" gridSize="10" guides="1" tooltips="1" connect="1" arrows="1" fold="1" page="1" pageScale="1" pageWidth="1920" pageHeight="1200" math="0" shadow="0">
      <root>
        <mxCell id="WIyWlLk6GJQsqaUBKTNV-0" />
        <mxCell id="WIyWlLk6GJQsqaUBKTNV-1" parent="WIyWlLk6GJQsqaUBKTNV-0" />
        <mxCell id="zkfFHV4jXpPFQw0GAbJ--0" value="Application" style="swimlane;fontStyle=2;align=center;verticalAlign=top;childLayout=stackLayout;horizontal=1;startSize=26;horizontalStack=0;resizeParent=1;resizeLast=0;collapsible=1;marginBottom=0;rounded=0;shadow=0;strokeWidth=1;" parent="WIyWlLk6GJQsqaUBKTNV-1" vertex="1" collapsed="1">
          <mxGeometry x="-280" y="67" width="160" height="26" as="geometry">
            <mxRectangle x="80" y="80" width="160" height="120" as="alternateBounds" />
          </mxGeometry>
        </mxCell>
        <mxCell id="zkfFHV4jXpPFQw0GAbJ--1" value="Web app / Mobile app" style="text;align=left;verticalAlign=top;spacingLeft=4;spacingRight=4;overflow=hidden;rotatable=0;points=[[0,0.5],[1,0.5]];portConstraint=eastwest;" parent="zkfFHV4jXpPFQw0GAbJ--0" vertex="1">
          <mxGeometry y="26" width="160" height="26" as="geometry" />
        </mxCell>
        <mxCell id="zkfFHV4jXpPFQw0GAbJ--4" value="" style="line;html=1;strokeWidth=1;align=left;verticalAlign=middle;spacingTop=-1;spacingLeft=3;spacingRight=3;rotatable=0;labelPosition=right;points=[];portConstraint=eastwest;" parent="zkfFHV4jXpPFQw0GAbJ--0" vertex="1">
          <mxGeometry y="52" width="160" height="8" as="geometry" />
        </mxCell>
        <mxCell id="zkfFHV4jXpPFQw0GAbJ--5" value="Responsible to respond to&#xa;client requests and provide&#xa;desired services. " style="text;align=left;verticalAlign=top;spacingLeft=4;spacingRight=4;overflow=hidden;rotatable=0;points=[[0,0.5],[1,0.5]];portConstraint=eastwest;" parent="zkfFHV4jXpPFQw0GAbJ--0" vertex="1">
          <mxGeometry y="60" width="160" height="58" as="geometry" />
        </mxCell>
        <mxCell id="FahuEgTHH9pwNO17Xr0R-77" style="edgeStyle=orthogonalEdgeStyle;rounded=0;orthogonalLoop=1;jettySize=auto;html=1;exitX=1;exitY=0.5;exitDx=0;exitDy=0;entryX=0;entryY=0.5;entryDx=0;entryDy=0;startArrow=classic;startFill=1;" edge="1" parent="WIyWlLk6GJQsqaUBKTNV-1" source="zkfFHV4jXpPFQw0GAbJ--6" target="FahuEgTHH9pwNO17Xr0R-76">
          <mxGeometry relative="1" as="geometry" />
        </mxCell>
        <mxCell id="zkfFHV4jXpPFQw0GAbJ--6" value="Delivery Manager" style="swimlane;fontStyle=0;align=center;verticalAlign=top;childLayout=stackLayout;horizontal=1;startSize=26;horizontalStack=0;resizeParent=1;resizeLast=0;collapsible=1;marginBottom=0;rounded=0;shadow=0;strokeWidth=1;fillColor=#f5f5f5;fontColor=#333333;strokeColor=#666666;" parent="WIyWlLk6GJQsqaUBKTNV-1" vertex="1" collapsed="1">
          <mxGeometry x="580" y="606.5" width="160" height="70" as="geometry">
            <mxRectangle x="80" y="490" width="160" height="70" as="alternateBounds" />
          </mxGeometry>
        </mxCell>
        <mxCell id="zkfFHV4jXpPFQw0GAbJ--17" value="Auth" style="swimlane;fontStyle=0;align=center;verticalAlign=middle;childLayout=stackLayout;horizontal=1;startSize=26;horizontalStack=0;resizeParent=1;resizeLast=0;collapsible=1;marginBottom=0;rounded=0;shadow=0;strokeWidth=1;labelBackgroundColor=default;endArrow=blockThin;fontSize=11;endFill=1;startArrow=blockThin;startFill=1;fillColor=#f5f5f5;fontColor=#333333;strokeColor=#666666;" parent="WIyWlLk6GJQsqaUBKTNV-1" vertex="1">
          <mxGeometry x="-30" y="40" width="160" height="100" as="geometry">
            <mxRectangle x="550" y="140" width="160" height="26" as="alternateBounds" />
          </mxGeometry>
        </mxCell>
        <mxCell id="zkfFHV4jXpPFQw0GAbJ--23" value="" style="line;html=1;strokeWidth=1;align=left;verticalAlign=middle;spacingTop=-1;spacingLeft=3;spacingRight=3;rotatable=0;labelPosition=right;points=[];portConstraint=eastwest;" parent="zkfFHV4jXpPFQw0GAbJ--17" vertex="1">
          <mxGeometry y="26" width="160" height="8" as="geometry" />
        </mxCell>
        <mxCell id="zkfFHV4jXpPFQw0GAbJ--24" value="Responsible for user &#xa;authentication and&#xa; authorization" style="text;align=left;verticalAlign=top;spacingLeft=4;spacingRight=4;overflow=hidden;rotatable=0;points=[[0,0.5],[1,0.5]];portConstraint=eastwest;" parent="zkfFHV4jXpPFQw0GAbJ--17" vertex="1">
          <mxGeometry y="34" width="160" height="56" as="geometry" />
        </mxCell>
        <mxCell id="zkfFHV4jXpPFQw0GAbJ--26" value="" style="endArrow=blockThin;shadow=0;strokeWidth=1;rounded=0;endFill=1;edgeStyle=elbowEdgeStyle;elbow=vertical;startArrow=blockThin;startFill=1;" parent="WIyWlLk6GJQsqaUBKTNV-1" source="zkfFHV4jXpPFQw0GAbJ--0" target="zkfFHV4jXpPFQw0GAbJ--17" edge="1">
          <mxGeometry x="0.5" y="41" relative="1" as="geometry">
            <mxPoint x="380" y="192" as="sourcePoint" />
            <mxPoint x="540" y="192" as="targetPoint" />
            <mxPoint x="-40" y="32" as="offset" />
          </mxGeometry>
        </mxCell>
        <mxCell id="FahuEgTHH9pwNO17Xr0R-1" value="DB" style="shape=cylinder3;whiteSpace=wrap;html=1;boundedLbl=1;backgroundOutline=1;size=15;" vertex="1" parent="WIyWlLk6GJQsqaUBKTNV-1">
          <mxGeometry x="970" y="40" width="60" height="80" as="geometry" />
        </mxCell>
        <mxCell id="FahuEgTHH9pwNO17Xr0R-4" value="" style="endArrow=blockThin;shadow=0;strokeWidth=1;rounded=0;endFill=1;edgeStyle=elbowEdgeStyle;elbow=vertical;startArrow=blockThin;startFill=1;entryX=0;entryY=0.5;entryDx=0;entryDy=0;entryPerimeter=0;" edge="1" parent="WIyWlLk6GJQsqaUBKTNV-1" source="zkfFHV4jXpPFQw0GAbJ--24" target="FahuEgTHH9pwNO17Xr0R-1">
          <mxGeometry x="0.5" y="41" relative="1" as="geometry">
            <mxPoint x="720" y="80" as="sourcePoint" />
            <mxPoint x="1080" y="160.5" as="targetPoint" />
            <mxPoint x="-40" y="32" as="offset" />
            <Array as="points" />
          </mxGeometry>
        </mxCell>
        <mxCell id="FahuEgTHH9pwNO17Xr0R-5" value="" style="swimlane;startSize=0;dashed=1;" vertex="1" parent="WIyWlLk6GJQsqaUBKTNV-1">
          <mxGeometry x="1010" y="760" width="440" height="370" as="geometry">
            <mxRectangle x="560" y="450" width="50" height="40" as="alternateBounds" />
          </mxGeometry>
        </mxCell>
        <mxCell id="FahuEgTHH9pwNO17Xr0R-83" value="" style="rounded=0;whiteSpace=wrap;html=1;fillColor=#f5f5f5;fontColor=#333333;strokeColor=#666666;" vertex="1" parent="FahuEgTHH9pwNO17Xr0R-5">
          <mxGeometry width="440" height="370" as="geometry" />
        </mxCell>
        <mxCell id="FahuEgTHH9pwNO17Xr0R-6" value="Fleet module" style="text;html=1;align=center;verticalAlign=middle;resizable=0;points=[];autosize=1;strokeColor=none;fillColor=none;fontStyle=2" vertex="1" parent="FahuEgTHH9pwNO17Xr0R-5">
          <mxGeometry x="175" width="90" height="30" as="geometry" />
        </mxCell>
        <mxCell id="FahuEgTHH9pwNO17Xr0R-62" style="edgeStyle=orthogonalEdgeStyle;rounded=0;orthogonalLoop=1;jettySize=auto;html=1;exitX=0.5;exitY=0;exitDx=0;exitDy=0;startArrow=classic;startFill=1;" edge="1" parent="FahuEgTHH9pwNO17Xr0R-5" source="FahuEgTHH9pwNO17Xr0R-10" target="FahuEgTHH9pwNO17Xr0R-15">
          <mxGeometry relative="1" as="geometry">
            <Array as="points">
              <mxPoint x="125" y="240" />
              <mxPoint x="210" y="240" />
            </Array>
          </mxGeometry>
        </mxCell>
        <mxCell id="FahuEgTHH9pwNO17Xr0R-10" value="Route Optimiser" style="swimlane;fontStyle=0;align=center;verticalAlign=top;childLayout=stackLayout;horizontal=1;startSize=34;horizontalStack=0;resizeParent=1;resizeLast=0;collapsible=1;marginBottom=0;rounded=0;shadow=0;strokeWidth=1;" vertex="1" collapsed="1" parent="FahuEgTHH9pwNO17Xr0R-5">
          <mxGeometry x="40" y="290" width="170" height="26" as="geometry">
            <mxRectangle x="40" y="150" width="160" height="40" as="alternateBounds" />
          </mxGeometry>
        </mxCell>
        <mxCell id="FahuEgTHH9pwNO17Xr0R-13" value="Traffic Handler" style="swimlane;fontStyle=0;align=center;verticalAlign=top;childLayout=stackLayout;horizontal=1;startSize=34;horizontalStack=0;resizeParent=1;resizeLast=0;collapsible=1;marginBottom=0;rounded=0;shadow=0;strokeWidth=1;" vertex="1" collapsed="1" parent="FahuEgTHH9pwNO17Xr0R-5">
          <mxGeometry x="250" y="43" width="170" height="26" as="geometry">
            <mxRectangle x="260" y="70" width="160" height="40" as="alternateBounds" />
          </mxGeometry>
        </mxCell>
        <mxCell id="FahuEgTHH9pwNO17Xr0R-63" style="edgeStyle=orthogonalEdgeStyle;rounded=0;orthogonalLoop=1;jettySize=auto;html=1;exitX=0.5;exitY=0;exitDx=0;exitDy=0;startArrow=classic;startFill=1;" edge="1" parent="FahuEgTHH9pwNO17Xr0R-5" source="FahuEgTHH9pwNO17Xr0R-14" target="FahuEgTHH9pwNO17Xr0R-15">
          <mxGeometry relative="1" as="geometry" />
        </mxCell>
        <mxCell id="FahuEgTHH9pwNO17Xr0R-14" value="Maintenance Handler" style="swimlane;fontStyle=0;align=center;verticalAlign=top;childLayout=stackLayout;horizontal=1;startSize=34;horizontalStack=0;resizeParent=1;resizeLast=0;collapsible=1;marginBottom=0;rounded=0;shadow=0;strokeWidth=1;" vertex="1" collapsed="1" parent="FahuEgTHH9pwNO17Xr0R-5">
          <mxGeometry x="260" y="290" width="170" height="26" as="geometry">
            <mxRectangle x="260" y="160" width="160" height="40" as="alternateBounds" />
          </mxGeometry>
        </mxCell>
        <mxCell id="FahuEgTHH9pwNO17Xr0R-67" style="edgeStyle=orthogonalEdgeStyle;rounded=0;orthogonalLoop=1;jettySize=auto;html=1;exitX=0.75;exitY=0;exitDx=0;exitDy=0;startArrow=classic;startFill=1;" edge="1" parent="FahuEgTHH9pwNO17Xr0R-5" source="FahuEgTHH9pwNO17Xr0R-15" target="FahuEgTHH9pwNO17Xr0R-13">
          <mxGeometry relative="1" as="geometry" />
        </mxCell>
        <mxCell id="FahuEgTHH9pwNO17Xr0R-15" value="Fleet Manager" style="swimlane;fontStyle=0;align=center;verticalAlign=top;childLayout=stackLayout;horizontal=1;startSize=34;horizontalStack=0;resizeParent=1;resizeLast=0;collapsible=1;marginBottom=0;rounded=0;shadow=0;strokeWidth=1;" vertex="1" collapsed="1" parent="FahuEgTHH9pwNO17Xr0R-5">
          <mxGeometry x="150" y="118.5" width="170" height="71.5" as="geometry">
            <mxRectangle x="40" y="70" width="160" height="230" as="alternateBounds" />
          </mxGeometry>
        </mxCell>
        <mxCell id="FahuEgTHH9pwNO17Xr0R-16" value="DB" style="shape=cylinder3;whiteSpace=wrap;html=1;boundedLbl=1;backgroundOutline=1;size=15;" vertex="1" parent="FahuEgTHH9pwNO17Xr0R-5">
          <mxGeometry x="54" y="26" width="60" height="60" as="geometry" />
        </mxCell>
        <mxCell id="FahuEgTHH9pwNO17Xr0R-68" style="edgeStyle=orthogonalEdgeStyle;rounded=0;orthogonalLoop=1;jettySize=auto;html=1;exitX=0.25;exitY=0;exitDx=0;exitDy=0;entryX=1;entryY=0;entryDx=0;entryDy=37.5;entryPerimeter=0;startArrow=classic;startFill=1;" edge="1" parent="FahuEgTHH9pwNO17Xr0R-5" source="FahuEgTHH9pwNO17Xr0R-15" target="FahuEgTHH9pwNO17Xr0R-16">
          <mxGeometry relative="1" as="geometry" />
        </mxCell>
        <mxCell id="FahuEgTHH9pwNO17Xr0R-7" value="" style="swimlane;startSize=0;dashed=1;fillColor=#f5f5f5;fontColor=#333333;strokeColor=#666666;" vertex="1" parent="WIyWlLk6GJQsqaUBKTNV-1">
          <mxGeometry x="510" y="245" width="370" height="200" as="geometry" />
        </mxCell>
        <mxCell id="FahuEgTHH9pwNO17Xr0R-84" value="" style="rounded=0;whiteSpace=wrap;html=1;fillColor=#f5f5f5;fontColor=#333333;strokeColor=#666666;" vertex="1" parent="FahuEgTHH9pwNO17Xr0R-7">
          <mxGeometry width="370" height="200" as="geometry" />
        </mxCell>
        <mxCell id="zkfFHV4jXpPFQw0GAbJ--13" value="Oder Manager" style="swimlane;fontStyle=0;align=center;verticalAlign=top;childLayout=stackLayout;horizontal=1;startSize=26;horizontalStack=0;resizeParent=1;resizeLast=0;collapsible=1;marginBottom=0;rounded=0;shadow=0;strokeWidth=1;" parent="FahuEgTHH9pwNO17Xr0R-7" vertex="1" collapsed="1">
          <mxGeometry x="54" y="72" width="170" height="68" as="geometry">
            <mxRectangle x="54" y="72" width="160" height="48" as="alternateBounds" />
          </mxGeometry>
        </mxCell>
        <mxCell id="FahuEgTHH9pwNO17Xr0R-82" value="" style="rounded=0;whiteSpace=wrap;html=1;fillColor=#f5f5f5;fontColor=#333333;strokeColor=#666666;" vertex="1" parent="zkfFHV4jXpPFQw0GAbJ--13">
          <mxGeometry x="-184" y="-82" width="370" height="200" as="geometry" />
        </mxCell>
        <mxCell id="FahuEgTHH9pwNO17Xr0R-8" value="Order Processing module" style="text;html=1;align=center;verticalAlign=middle;resizable=0;points=[];autosize=1;strokeColor=none;fillColor=none;fontStyle=2" vertex="1" parent="FahuEgTHH9pwNO17Xr0R-7">
          <mxGeometry x="120" width="160" height="30" as="geometry" />
        </mxCell>
        <mxCell id="FahuEgTHH9pwNO17Xr0R-25" value="" style="endArrow=blockThin;shadow=0;strokeWidth=1;rounded=0;endFill=1;edgeStyle=elbowEdgeStyle;elbow=vertical;startArrow=blockThin;startFill=1;entryX=0.5;entryY=1;entryDx=0;entryDy=0;exitX=0.5;exitY=0;exitDx=0;exitDy=0;" edge="1" parent="WIyWlLk6GJQsqaUBKTNV-1" source="zkfFHV4jXpPFQw0GAbJ--6" target="zkfFHV4jXpPFQw0GAbJ--13">
          <mxGeometry x="0.5" y="41" relative="1" as="geometry">
            <mxPoint x="270" y="350" as="sourcePoint" />
            <mxPoint x="450" y="350.5" as="targetPoint" />
            <mxPoint x="-40" y="32" as="offset" />
          </mxGeometry>
        </mxCell>
        <mxCell id="FahuEgTHH9pwNO17Xr0R-28" value="" style="endArrow=blockThin;shadow=0;strokeWidth=1;rounded=0;endFill=1;edgeStyle=elbowEdgeStyle;elbow=vertical;startArrow=blockThin;startFill=1;entryX=0.5;entryY=1;entryDx=0;entryDy=0;entryPerimeter=0;" edge="1" parent="WIyWlLk6GJQsqaUBKTNV-1" source="zkfFHV4jXpPFQw0GAbJ--13" target="FahuEgTHH9pwNO17Xr0R-1">
          <mxGeometry x="0.5" y="41" relative="1" as="geometry">
            <mxPoint x="584" y="273" as="sourcePoint" />
            <mxPoint x="919" y="250" as="targetPoint" />
            <mxPoint x="-40" y="32" as="offset" />
            <Array as="points">
              <mxPoint x="880" y="180" />
            </Array>
          </mxGeometry>
        </mxCell>
        <mxCell id="FahuEgTHH9pwNO17Xr0R-30" value="" style="endArrow=blockThin;shadow=0;strokeWidth=1;rounded=0;endFill=1;edgeStyle=elbowEdgeStyle;elbow=vertical;startArrow=blockThin;startFill=1;exitX=0.25;exitY=0;exitDx=0;exitDy=0;" edge="1" parent="WIyWlLk6GJQsqaUBKTNV-1" source="zkfFHV4jXpPFQw0GAbJ--6" target="FahuEgTHH9pwNO17Xr0R-9">
          <mxGeometry x="0.5" y="41" relative="1" as="geometry">
            <mxPoint x="-50" y="430" as="sourcePoint" />
            <mxPoint x="240" y="430" as="targetPoint" />
            <mxPoint x="-40" y="32" as="offset" />
            <Array as="points" />
          </mxGeometry>
        </mxCell>
        <mxCell id="FahuEgTHH9pwNO17Xr0R-31" value="" style="endArrow=blockThin;shadow=0;strokeWidth=1;rounded=0;endFill=1;edgeStyle=elbowEdgeStyle;elbow=vertical;startArrow=blockThin;startFill=1;entryX=0;entryY=0.5;entryDx=0;entryDy=0;exitX=1;exitY=0.5;exitDx=0;exitDy=0;" edge="1" parent="WIyWlLk6GJQsqaUBKTNV-1" source="FahuEgTHH9pwNO17Xr0R-9" target="zkfFHV4jXpPFQw0GAbJ--13">
          <mxGeometry x="0.5" y="41" relative="1" as="geometry">
            <mxPoint x="320" y="300" as="sourcePoint" />
            <mxPoint x="610" y="300" as="targetPoint" />
            <mxPoint x="-40" y="32" as="offset" />
            <Array as="points">
              <mxPoint x="600" y="312" />
            </Array>
          </mxGeometry>
        </mxCell>
        <mxCell id="FahuEgTHH9pwNO17Xr0R-32" value="" style="endArrow=blockThin;shadow=0;strokeWidth=1;rounded=0;endFill=1;edgeStyle=elbowEdgeStyle;elbow=vertical;startArrow=blockThin;startFill=1;" edge="1" parent="WIyWlLk6GJQsqaUBKTNV-1" source="zkfFHV4jXpPFQw0GAbJ--0" target="FahuEgTHH9pwNO17Xr0R-9">
          <mxGeometry x="0.5" y="41" relative="1" as="geometry">
            <mxPoint x="100" y="232" as="sourcePoint" />
            <mxPoint x="334" y="210" as="targetPoint" />
            <mxPoint x="-40" y="32" as="offset" />
            <Array as="points">
              <mxPoint x="280" y="160" />
            </Array>
          </mxGeometry>
        </mxCell>
        <mxCell id="FahuEgTHH9pwNO17Xr0R-34" value="" style="swimlane;startSize=0;dashed=1;swimlaneLine=0;opacity=0;fillColor=#f5f5f5;fontColor=#333333;strokeColor=#666666;" vertex="1" parent="WIyWlLk6GJQsqaUBKTNV-1">
          <mxGeometry x="-100" y="750" width="610" height="390" as="geometry">
            <mxRectangle x="560" y="450" width="50" height="40" as="alternateBounds" />
          </mxGeometry>
        </mxCell>
        <mxCell id="FahuEgTHH9pwNO17Xr0R-81" value="" style="rounded=0;whiteSpace=wrap;html=1;fillColor=#f5f5f5;fontColor=#333333;strokeColor=#666666;" vertex="1" parent="FahuEgTHH9pwNO17Xr0R-34">
          <mxGeometry width="610" height="390" as="geometry" />
        </mxCell>
        <mxCell id="FahuEgTHH9pwNO17Xr0R-35" value="Vehicle module" style="text;html=1;align=center;verticalAlign=middle;resizable=0;points=[];autosize=1;strokeColor=none;fillColor=none;fontStyle=2" vertex="1" parent="FahuEgTHH9pwNO17Xr0R-34">
          <mxGeometry x="170" width="100" height="30" as="geometry" />
        </mxCell>
        <mxCell id="FahuEgTHH9pwNO17Xr0R-36" value="Path Manager" style="swimlane;fontStyle=0;align=center;verticalAlign=top;childLayout=stackLayout;horizontal=1;startSize=34;horizontalStack=0;resizeParent=1;resizeLast=0;collapsible=1;marginBottom=0;rounded=0;shadow=0;strokeWidth=1;" vertex="1" collapsed="1" parent="FahuEgTHH9pwNO17Xr0R-34">
          <mxGeometry x="220" y="190" width="170" height="26" as="geometry">
            <mxRectangle x="40" y="150" width="160" height="40" as="alternateBounds" />
          </mxGeometry>
        </mxCell>
        <mxCell id="FahuEgTHH9pwNO17Xr0R-37" value="Traffic Handler" style="swimlane;fontStyle=0;align=center;verticalAlign=top;childLayout=stackLayout;horizontal=1;startSize=34;horizontalStack=0;resizeParent=1;resizeLast=0;collapsible=1;marginBottom=0;rounded=0;shadow=0;strokeWidth=1;" vertex="1" collapsed="1" parent="FahuEgTHH9pwNO17Xr0R-34">
          <mxGeometry x="30" y="284" width="170" height="26" as="geometry">
            <mxRectangle x="260" y="70" width="160" height="40" as="alternateBounds" />
          </mxGeometry>
        </mxCell>
        <mxCell id="FahuEgTHH9pwNO17Xr0R-38" value="Maintenance Handler" style="swimlane;fontStyle=0;align=center;verticalAlign=top;childLayout=stackLayout;horizontal=1;startSize=34;horizontalStack=0;resizeParent=1;resizeLast=0;collapsible=1;marginBottom=0;rounded=0;shadow=0;strokeWidth=1;" vertex="1" collapsed="1" parent="FahuEgTHH9pwNO17Xr0R-34">
          <mxGeometry x="20" y="120" width="170" height="26" as="geometry">
            <mxRectangle x="260" y="160" width="160" height="40" as="alternateBounds" />
          </mxGeometry>
        </mxCell>
        <mxCell id="FahuEgTHH9pwNO17Xr0R-39" value="Assignment Manager" style="swimlane;fontStyle=0;align=center;verticalAlign=top;childLayout=stackLayout;horizontal=1;startSize=34;horizontalStack=0;resizeParent=1;resizeLast=0;collapsible=1;marginBottom=0;rounded=0;shadow=0;strokeWidth=1;" vertex="1" collapsed="1" parent="FahuEgTHH9pwNO17Xr0R-34">
          <mxGeometry x="360" y="80" width="170" height="50" as="geometry">
            <mxRectangle x="40" y="70" width="160" height="230" as="alternateBounds" />
          </mxGeometry>
        </mxCell>
        <mxCell id="FahuEgTHH9pwNO17Xr0R-42" value="" style="endArrow=blockThin;shadow=0;strokeWidth=1;rounded=0;endFill=1;edgeStyle=elbowEdgeStyle;elbow=vertical;startArrow=blockThin;startFill=1;exitX=0.598;exitY=-0.064;exitDx=0;exitDy=0;exitPerimeter=0;" edge="1" parent="FahuEgTHH9pwNO17Xr0R-34" source="FahuEgTHH9pwNO17Xr0R-37" target="FahuEgTHH9pwNO17Xr0R-36">
          <mxGeometry x="0.5" y="41" relative="1" as="geometry">
            <mxPoint x="200" y="69.5" as="sourcePoint" />
            <mxPoint x="276" y="130" as="targetPoint" />
            <mxPoint x="-40" y="32" as="offset" />
            <Array as="points">
              <mxPoint x="260" y="180" />
            </Array>
          </mxGeometry>
        </mxCell>
        <mxCell id="FahuEgTHH9pwNO17Xr0R-43" value="" style="endArrow=blockThin;shadow=0;strokeWidth=1;rounded=0;endFill=1;edgeStyle=elbowEdgeStyle;elbow=vertical;startArrow=blockThin;startFill=1;entryX=0.75;entryY=1;entryDx=0;entryDy=0;exitX=0.5;exitY=0;exitDx=0;exitDy=0;" edge="1" parent="FahuEgTHH9pwNO17Xr0R-34" target="FahuEgTHH9pwNO17Xr0R-39" source="FahuEgTHH9pwNO17Xr0R-36">
          <mxGeometry x="0.5" y="41" relative="1" as="geometry">
            <mxPoint x="114" y="199.99888888888893" as="sourcePoint" />
            <mxPoint x="114" y="151.11" as="targetPoint" />
            <mxPoint x="-40" y="32" as="offset" />
          </mxGeometry>
        </mxCell>
        <mxCell id="FahuEgTHH9pwNO17Xr0R-44" value="" style="endArrow=blockThin;shadow=0;strokeWidth=1;rounded=0;endFill=1;edgeStyle=elbowEdgeStyle;elbow=vertical;startArrow=blockThin;startFill=1;entryX=0;entryY=0.5;entryDx=0;entryDy=0;" edge="1" parent="FahuEgTHH9pwNO17Xr0R-34" source="FahuEgTHH9pwNO17Xr0R-38" target="FahuEgTHH9pwNO17Xr0R-39">
          <mxGeometry x="0.5" y="41" relative="1" as="geometry">
            <mxPoint x="175" y="199.99888888888893" as="sourcePoint" />
            <mxPoint x="296" y="145" as="targetPoint" />
            <mxPoint x="-40" y="32" as="offset" />
            <Array as="points">
              <mxPoint x="240" y="93" />
            </Array>
          </mxGeometry>
        </mxCell>
        <mxCell id="FahuEgTHH9pwNO17Xr0R-54" style="edgeStyle=orthogonalEdgeStyle;rounded=0;orthogonalLoop=1;jettySize=auto;html=1;exitX=0.5;exitY=0;exitDx=0;exitDy=0;entryX=0.5;entryY=1;entryDx=0;entryDy=0;" edge="1" parent="FahuEgTHH9pwNO17Xr0R-34" source="FahuEgTHH9pwNO17Xr0R-53" target="FahuEgTHH9pwNO17Xr0R-36">
          <mxGeometry relative="1" as="geometry" />
        </mxCell>
        <mxCell id="FahuEgTHH9pwNO17Xr0R-53" value="Self driving AI" style="rounded=0;whiteSpace=wrap;html=1;" vertex="1" parent="FahuEgTHH9pwNO17Xr0R-34">
          <mxGeometry x="250" y="270" width="120" height="43" as="geometry" />
        </mxCell>
        <mxCell id="FahuEgTHH9pwNO17Xr0R-56" style="edgeStyle=orthogonalEdgeStyle;rounded=0;orthogonalLoop=1;jettySize=auto;html=1;exitX=0;exitY=0.5;exitDx=0;exitDy=0;startArrow=classic;startFill=1;" edge="1" parent="FahuEgTHH9pwNO17Xr0R-34" source="FahuEgTHH9pwNO17Xr0R-55" target="FahuEgTHH9pwNO17Xr0R-53">
          <mxGeometry relative="1" as="geometry" />
        </mxCell>
        <mxCell id="FahuEgTHH9pwNO17Xr0R-55" value="Human Assistance Module" style="swimlane;fontStyle=0;align=center;verticalAlign=top;childLayout=stackLayout;horizontal=1;startSize=34;horizontalStack=0;resizeParent=1;resizeLast=0;collapsible=1;marginBottom=0;rounded=0;shadow=0;strokeWidth=1;" vertex="1" collapsed="1" parent="FahuEgTHH9pwNO17Xr0R-34">
          <mxGeometry x="410" y="310" width="170" height="26" as="geometry">
            <mxRectangle x="260" y="160" width="160" height="40" as="alternateBounds" />
          </mxGeometry>
        </mxCell>
        <mxCell id="FahuEgTHH9pwNO17Xr0R-50" style="edgeStyle=orthogonalEdgeStyle;rounded=0;orthogonalLoop=1;jettySize=auto;html=1;exitX=1;exitY=0.5;exitDx=0;exitDy=0;entryX=0;entryY=0.5;entryDx=0;entryDy=0;startArrow=classic;startFill=1;" edge="1" parent="WIyWlLk6GJQsqaUBKTNV-1" source="FahuEgTHH9pwNO17Xr0R-49" target="zkfFHV4jXpPFQw0GAbJ--6">
          <mxGeometry relative="1" as="geometry" />
        </mxCell>
        <mxCell id="FahuEgTHH9pwNO17Xr0R-58" style="edgeStyle=orthogonalEdgeStyle;rounded=0;orthogonalLoop=1;jettySize=auto;html=1;exitX=0.5;exitY=1;exitDx=0;exitDy=0;entryX=0.75;entryY=0;entryDx=0;entryDy=0;startArrow=classic;startFill=1;" edge="1" parent="WIyWlLk6GJQsqaUBKTNV-1" source="FahuEgTHH9pwNO17Xr0R-57" target="FahuEgTHH9pwNO17Xr0R-39">
          <mxGeometry relative="1" as="geometry" />
        </mxCell>
        <mxCell id="FahuEgTHH9pwNO17Xr0R-66" style="edgeStyle=orthogonalEdgeStyle;rounded=0;orthogonalLoop=1;jettySize=auto;html=1;exitX=1;exitY=0.5;exitDx=0;exitDy=0;entryX=0;entryY=0.75;entryDx=0;entryDy=0;startArrow=classic;startFill=1;" edge="1" parent="WIyWlLk6GJQsqaUBKTNV-1" source="FahuEgTHH9pwNO17Xr0R-57" target="FahuEgTHH9pwNO17Xr0R-15">
          <mxGeometry relative="1" as="geometry" />
        </mxCell>
        <mxCell id="FahuEgTHH9pwNO17Xr0R-57" value="Fleet Analytics" style="swimlane;fontStyle=0;align=center;verticalAlign=top;childLayout=stackLayout;horizontal=1;startSize=34;horizontalStack=0;resizeParent=1;resizeLast=0;collapsible=1;marginBottom=0;rounded=0;shadow=0;strokeWidth=1;" vertex="1" collapsed="1" parent="WIyWlLk6GJQsqaUBKTNV-1">
          <mxGeometry x="770" y="800" width="170" height="26" as="geometry">
            <mxRectangle x="260" y="160" width="160" height="40" as="alternateBounds" />
          </mxGeometry>
        </mxCell>
        <mxCell id="FahuEgTHH9pwNO17Xr0R-71" style="edgeStyle=orthogonalEdgeStyle;rounded=0;orthogonalLoop=1;jettySize=auto;html=1;exitX=1;exitY=0.5;exitDx=0;exitDy=0;entryX=0;entryY=0.25;entryDx=0;entryDy=0;startArrow=classic;startFill=1;" edge="1" parent="WIyWlLk6GJQsqaUBKTNV-1" source="FahuEgTHH9pwNO17Xr0R-70" target="FahuEgTHH9pwNO17Xr0R-9">
          <mxGeometry relative="1" as="geometry" />
        </mxCell>
        <mxCell id="FahuEgTHH9pwNO17Xr0R-70" value="Customer Support Module" style="swimlane;whiteSpace=wrap;html=1;fillColor=#f5f5f5;fontColor=#333333;strokeColor=#666666;" vertex="1" parent="WIyWlLk6GJQsqaUBKTNV-1">
          <mxGeometry x="-290" y="210" width="200" height="30" as="geometry" />
        </mxCell>
        <mxCell id="FahuEgTHH9pwNO17Xr0R-72" style="edgeStyle=orthogonalEdgeStyle;rounded=0;orthogonalLoop=1;jettySize=auto;html=1;exitX=0.5;exitY=0;exitDx=0;exitDy=0;entryX=0;entryY=0.75;entryDx=0;entryDy=0;startArrow=classic;startFill=1;" edge="1" parent="WIyWlLk6GJQsqaUBKTNV-1" source="FahuEgTHH9pwNO17Xr0R-39" target="zkfFHV4jXpPFQw0GAbJ--6">
          <mxGeometry relative="1" as="geometry" />
        </mxCell>
        <mxCell id="FahuEgTHH9pwNO17Xr0R-75" style="edgeStyle=orthogonalEdgeStyle;rounded=0;orthogonalLoop=1;jettySize=auto;html=1;exitX=1;exitY=0.5;exitDx=0;exitDy=0;entryX=0.25;entryY=1;entryDx=0;entryDy=0;startArrow=open;startFill=0;endArrow=none;endFill=0;" edge="1" parent="WIyWlLk6GJQsqaUBKTNV-1" source="FahuEgTHH9pwNO17Xr0R-73" target="FahuEgTHH9pwNO17Xr0R-9">
          <mxGeometry relative="1" as="geometry">
            <Array as="points">
              <mxPoint x="180" y="345" />
            </Array>
          </mxGeometry>
        </mxCell>
        <mxCell id="FahuEgTHH9pwNO17Xr0R-73" value="Notification Module" style="swimlane;whiteSpace=wrap;html=1;fillColor=#f5f5f5;fontColor=#333333;strokeColor=#666666;" vertex="1" parent="WIyWlLk6GJQsqaUBKTNV-1">
          <mxGeometry x="-290" y="330" width="200" height="30" as="geometry" />
        </mxCell>
        <mxCell id="FahuEgTHH9pwNO17Xr0R-76" value="Human Driver Module" style="swimlane;whiteSpace=wrap;html=1;fillColor=#f5f5f5;fontColor=#333333;strokeColor=#666666;" vertex="1" parent="WIyWlLk6GJQsqaUBKTNV-1">
          <mxGeometry x="1070" y="510" width="200" height="90" as="geometry" />
        </mxCell>
        <mxCell id="FahuEgTHH9pwNO17Xr0R-9" value="App Service&amp;nbsp;Router" style="shape=process;whiteSpace=wrap;html=1;backgroundOutline=1;fillColor=#f5f5f5;fontColor=#333333;strokeColor=#666666;" vertex="1" parent="WIyWlLk6GJQsqaUBKTNV-1">
          <mxGeometry x="180" y="390" width="120" height="60" as="geometry" />
        </mxCell>
        <mxCell id="FahuEgTHH9pwNO17Xr0R-52" style="edgeStyle=orthogonalEdgeStyle;rounded=0;orthogonalLoop=1;jettySize=auto;html=1;exitX=0.5;exitY=0;exitDx=0;exitDy=0;entryX=0;entryY=0.5;entryDx=0;entryDy=0;startArrow=classic;startFill=1;" edge="1" parent="WIyWlLk6GJQsqaUBKTNV-1" source="FahuEgTHH9pwNO17Xr0R-49" target="FahuEgTHH9pwNO17Xr0R-9">
          <mxGeometry relative="1" as="geometry" />
        </mxCell>
        <mxCell id="FahuEgTHH9pwNO17Xr0R-49" value="Issue Resolver" style="swimlane;whiteSpace=wrap;html=1;fillColor=#f5f5f5;fontColor=#333333;strokeColor=#666666;" vertex="1" parent="WIyWlLk6GJQsqaUBKTNV-1">
          <mxGeometry x="70" y="600" width="200" height="90" as="geometry" />
        </mxCell>
        <mxCell id="FahuEgTHH9pwNO17Xr0R-65" style="edgeStyle=orthogonalEdgeStyle;rounded=0;orthogonalLoop=1;jettySize=auto;html=1;exitX=0.75;exitY=1;exitDx=0;exitDy=0;entryX=0;entryY=0.5;entryDx=0;entryDy=0;startArrow=classic;startFill=1;" edge="1" parent="WIyWlLk6GJQsqaUBKTNV-1" source="zkfFHV4jXpPFQw0GAbJ--6" target="FahuEgTHH9pwNO17Xr0R-15">
          <mxGeometry relative="1" as="geometry" />
        </mxCell>
      </root>
    </mxGraphModel>
  </diagram>
</mxfile>
